                <svg width="150" height="150" viewBox="0 0 222 222" fill="none" xmlns="http://www.w3.org/2000/svg">
                <path d="M27.75 138.75C31.3942 138.75 35.0027 138.032 38.3695 136.638C41.7363 135.243 44.7954 133.199 47.3722 130.622C49.949 128.045 51.9931 124.986 53.3877 121.619C54.7822 118.253 55.5 114.644 55.5 111C55.5 118.36 58.4237 125.418 63.6278 130.622C68.8319 135.826 75.8902 138.75 83.25 138.75C90.6098 138.75 97.6681 135.826 102.872 130.622C108.076 125.418 111 118.36 111 111C111 118.36 113.924 125.418 119.128 130.622C124.332 135.826 131.39 138.75 138.75 138.75C146.11 138.75 153.168 135.826 158.372 130.622C163.576 125.418 166.5 118.36 166.5 111C166.5 118.36 169.424 125.418 174.628 130.622C179.832 135.826 186.89 138.75 194.25 138.75C201.61 138.75 208.668 135.826 213.872 130.622C219.076 125.418 222 118.36 222 111C222 172.305 172.305 222 111 222C49.6947 222 0 172.305 0 111C0 118.36 2.92365 125.418 8.12779 130.622C13.3319 135.826 20.3902 138.75 27.75 138.75ZM133.2 49.95C133.2 55.8378 130.861 61.4845 126.698 65.6478C122.534 69.8111 116.888 72.15 111 72.15C105.112 72.15 99.4655 69.8111 95.3022 65.6478C91.1389 61.4845 88.8 55.8378 88.8 49.95C88.8 37.6845 111 0 111 0C111 0 133.2 37.6845 133.2 49.95Z" fill="#BF4F4E"/>
                </svg>
               
