<svg width="134" height="134" viewBox="0 0 213 213" fill="none" xmlns="http://www.w3.org/2000/svg">
                <path d="M209.689 57.3031L155.538 3.09682C153.544 1.11333 150.848 0 148.037 0C145.227 0 142.53 1.11333 140.537 3.09682C139.54 4.08683 138.749 5.26469 138.208 6.56244C137.668 7.86019 137.39 9.25215 137.39 10.658C137.39 12.0639 137.668 13.4558 138.208 14.7536C138.749 16.0513 139.54 17.2292 140.537 18.2192L159.58 37.7079L101.919 95.8546L91.2801 85.205C88.3149 82.2266 84.7916 79.8633 80.9122 78.2508C77.0327 76.6383 72.8734 75.8082 68.6728 75.8082C64.4722 75.8082 60.3129 76.6383 56.4335 78.2508C52.554 79.8633 49.0307 82.2266 46.0656 85.205L9.36214 121.627C6.38491 124.603 4.02505 128.14 2.41834 132.033C0.811629 135.925 -0.0102149 140.098 9.58266e-05 144.31V181.051C9.58266e-05 189.525 3.36267 197.651 9.3481 203.642C15.3335 209.634 23.4515 213 31.9162 213H68.6196C72.8274 213.01 76.9957 212.188 80.8847 210.579C84.7737 208.971 88.3065 206.609 91.2801 203.628L127.664 167.1C130.64 164.132 133.001 160.605 134.611 156.722C136.222 152.838 137.052 148.675 137.052 144.47C137.052 140.265 136.222 136.101 134.611 132.218C133.001 128.335 130.64 124.808 127.664 121.84L117.026 111.19L175.113 53.2563L194.582 72.745C195.571 73.7432 196.747 74.5355 198.044 75.0761C199.34 75.6168 200.731 75.8951 202.135 75.8951C203.54 75.8951 204.93 75.6168 206.227 75.0761C207.523 74.5355 208.7 73.7432 209.689 72.745C210.735 71.7501 211.568 70.5526 212.137 69.2253C212.706 67.8979 213 66.4686 213 65.0241C213 63.5796 212.706 62.1502 212.137 60.8229C211.568 59.4956 210.735 58.298 209.689 57.3031ZM112.77 151.978L76.1731 188.612C75.179 189.599 74.0001 190.38 72.7039 190.91C71.4077 191.44 70.0198 191.709 68.6196 191.701H31.9162C29.0946 191.701 26.3886 190.579 24.3935 188.582C22.3983 186.584 21.2775 183.876 21.2775 181.051V144.31C21.2694 142.909 21.5377 141.519 22.0672 140.222C22.5966 138.924 23.3767 137.744 24.3627 136.749L60.9598 100.114C62.9531 98.1309 65.6495 97.0176 68.4601 97.0176C71.2707 97.0176 73.9671 98.1309 75.9603 100.114L86.599 110.764L77.1306 120.349C75.1491 122.344 74.0369 125.043 74.0369 127.857C74.0369 130.67 75.1491 133.369 77.1306 135.365C78.1746 136.404 79.4229 137.215 80.7963 137.747C82.1698 138.279 83.6385 138.519 85.1096 138.453C87.9006 138.441 90.5751 137.332 92.5567 135.365L102.132 125.886L112.77 136.536C113.816 137.531 114.649 138.728 115.219 140.056C115.788 141.383 116.082 142.812 116.082 144.257C116.082 145.701 115.788 147.131 115.219 148.458C114.649 149.785 113.816 150.983 112.77 151.978Z" fill="#BF4F4E"/>
                </svg>